{"title":"Drake - Views From The 6 Singles Only M4a 2016","uid":14452579,"size":42372191,"categoryP":"audio","categoryS":"other","magnet":"?xt=urn:btih:e5e2209633819b1e0f6e1e0bfdd510651ddb7ef9&amp;dn=Drake+-+Views+From+The+6+Singles+Only+M4a+2016&amp;tr=udp%3A%2F%2Ftracker.leechers-paradise.org%3A6969&amp;tr=udp%3A%2F%2Fzer0day.ch%3A1337&amp;tr=udp%3A%2F%2Fopen.demonii.com%3A1337&amp;tr=udp%3A%2F%2Ftracker.coppersurfer.tk%3A6969&amp;tr=udp%3A%2F%2Fexodus.desync.com%3A6969","seeders":2,"leechers":0,"uploader":"LTBS","files":7,"time":1461764011,"description":"Singles from Views from the 6\r\n&quot;Summer Sixteen&quot;\r\nReleased: January 30, 2016\r\n&quot;One Dance&quot;\r\nReleased: April 5, 2016\r\n&quot;Pop Style&quot;\r\nReleased: April 5, 2016\r\n\r\n\r\nFormat/Info : Advanced Audio Codec \r\nFormat profile : LC \r\nCodec ID : 40 \r\nDuration : 2mn 54s \r\nBit rate mode : Variable \r\nBit rate : 256 Kbps \r\nMaximum bit rate : 359 Kbps \r\nChannel(s) : 2 channels \r\nChannel positions : Front: L R \r\nSampling rate : 44.1 KHz \r\nCompression mode : Lossy \r\nStream size : 5.35 MiB (90%) \r\n\r\nFormat/Info : Advanced Audio Codec \r\nFormat profile : LC \r\nCodec ID : 40 \r\nDuration : 3mn 29s \r\nBit rate mode : Variable \r\nBit rate : 256 Kbps \r\nMaximum bit rate : 433 Kbps \r\nChannel(s) : 2 channels \r\nChannel positions : Front: L R \r\nSampling rate : 44.1 KHz \r\nCompression mode : Lossy \r\nStream size : 6.27 MiB (92%) \r\n\r\nFormat/Info : Advanced Audio Codec \r\nFormat profile : LC \r\nCodec ID : 40 \r\nDuration : 3mn 22s \r\nBit rate mode : Variable \r\nBit rate : 256 Kbps \r\nMaximum bit rate : 446 Kbps \r\nChannel(s) : 2 channels \r\nChannel positions : Front: L R \r\nSampling rate : 44.1 KHz \r\nCompression mode : Lossy \r\nStream size : 6.34 MiB (92%)","torrent":{"xt":"urn:btih:e5e2209633819b1e0f6e1e0bfdd510651ddb7ef9","amp;dn":"Drake+-+Views+From+The+6+Singles+Only+M4a+2016","amp;tr":["udp%3A%2F%2Ftracker.leechers-paradise.org%3A6969","udp%3A%2F%2Fzer0day.ch%3A1337","udp%3A%2F%2Fopen.demonii.com%3A1337","udp%3A%2F%2Ftracker.coppersurfer.tk%3A6969","udp%3A%2F%2Fexodus.desync.com%3A6969"],"infoHash":"e5e2209633819b1e0f6e1e0bfdd510651ddb7ef9","infoHashBuffer":{"type":"Buffer","data":[229,226,32,150,51,129,155,30,15,110,30,11,253,213,16,101,29,219,126,249]},"announce":[],"urlList":[]}}